<mxfile host="app.diagrams.net" modified="2024-07-13T08:29:02.104Z" agent="Mozilla/5.0 (Windows NT 10.0; Win64; x64) AppleWebKit/537.36 (KHTML, like Gecko) Chrome/126.0.0.0 Safari/537.36" version="24.6.4" etag="00oI7Xexgk4Tv79_eUdc" type="github">
  <diagram name="第 1 页" id="OXRmj3ONts_fg6BUwYeo">
    <mxGraphModel>
      <root>
        <mxCell id="0" />
        <mxCell id="1" parent="0" />
      </root>
    </mxGraphModel>
  </diagram>
</mxfile>
